<svg width="46" height="39" viewBox="0 0 46 39" fill="none" xmlns="http://www.w3.org/2000/svg">
<path d="M12.1218 29.062C9.93078 29.062 8.15469 30.839 8.15469 33.031C8.15469 35.2231 9.93086 37 12.1218 37C14.3128 37 16.0889 35.223 16.0889 33.031C16.089 30.839 14.3128 29.062 12.1218 29.062ZM12.1218 35.2361C10.9046 35.2361 9.91787 34.2489 9.91787 33.0311C9.91787 31.8133 10.9046 30.8261 12.1218 30.8261C13.339 30.8261 14.3257 31.8133 14.3257 33.0311C14.3258 34.2489 13.339 35.2361 12.1218 35.2361Z" fill="#26BD62"/>
<path d="M28.8721 29.062C26.6811 29.062 24.905 30.839 24.905 33.031C24.905 35.2231 26.6812 37 28.8721 37C31.063 37 32.8392 35.223 32.8392 33.031C32.8392 30.839 31.0631 29.062 28.8721 29.062ZM28.8721 35.2361C27.6549 35.2361 26.6682 34.2489 26.6682 33.0311C26.6682 31.8133 27.6549 30.8261 28.8721 30.8261C30.0893 30.8261 31.076 31.8133 31.076 33.0311C31.0761 34.2489 30.0893 35.2361 28.8721 35.2361Z" fill="#26BD62"/>
<path d="M37.8202 5.9095C37.6366 5.70885 37.3855 5.58325 37.115 5.55666L8.41921 5.15976L7.62579 2.73423C7.06683 1.11278 5.54916 0.0181483 3.83491 0H0.881592C0.394687 0 0 0.394872 0 0.882006C0 1.36914 0.394687 1.76401 0.881592 1.76401H3.83491C4.79345 1.7852 5.6375 2.40097 5.95077 3.30754L11.5489 20.1979L11.1081 21.2122C10.6165 22.4805 10.7641 23.9081 11.5048 25.0489C12.2384 26.1694 13.4726 26.8609 14.8108 26.9011H31.9578C32.4447 26.9011 32.8394 26.5063 32.8394 26.0191C32.8394 25.532 32.4447 25.1371 31.9578 25.1371H14.8107C14.055 25.1182 13.3594 24.7205 12.9594 24.0787C12.5639 23.4448 12.4826 22.6638 12.739 21.9618L13.0917 21.1681L31.6492 19.2276C33.6876 19.003 35.3643 17.5197 35.8367 15.5232L37.9526 6.65906C38.0479 6.4038 37.9973 6.11672 37.8202 5.9095ZM34.1176 15.1264C33.8314 16.4116 32.7407 17.3596 31.4288 17.4637L13.0917 19.36L8.99226 6.92377L36.013 7.32067L34.1176 15.1264Z" fill="#26BD62"/>
<path d="M45.5 26.5C45.5 33.1274 40.1274 38.5 33.5 38.5C26.8726 38.5 21.5 33.1274 21.5 26.5C21.5 19.8726 26.8726 14.5 33.5 14.5C40.1274 14.5 45.5 19.8726 45.5 26.5Z" fill="white" stroke="#26BD62"/>
<line x1="38.8088" y1="32.3924" x2="28.2873" y2="21.7014" stroke="#FF0000" stroke-width="2"/>
<line x1="38.3924" y1="21.7918" x2="27.7014" y2="32.3133" stroke="#FF0000" stroke-width="2"/>
</svg>
