<?xml version="1.0" standalone="no"?>
<!DOCTYPE svg PUBLIC "-//W3C//DTD SVG 20010904//EN"
 "http://www.w3.org/TR/2001/REC-SVG-20010904/DTD/svg10.dtd">
<svg version="1.0" xmlns="http://www.w3.org/2000/svg"
 width="512.000000pt" height="512.000000pt" viewBox="0 0 512.000000 512.000000"
 preserveAspectRatio="xMidYMid meet">
<metadata>
Created by potrace 1.11, written by Peter Selinger 2001-2013
</metadata>
<g transform="translate(0.000000,512.000000) scale(0.100000,-0.100000)"
fill="#000000" stroke="none">
<path d="M2378 5115 c-2 -1 -34 -5 -73 -9 -103 -9 -246 -33 -360 -62 -118 -29
-286 -83 -299 -95 -6 -5 -16 -9 -23 -9 -25 0 -234 -101 -353 -170 -101 -58
-246 -159 -334 -232 -125 -105 -299 -280 -366 -368 -14 -18 -38 -49 -54 -69
-16 -20 -54 -74 -85 -121 -233 -351 -376 -746 -419 -1160 -14 -140 -7 -504 12
-615 3 -16 8 -43 10 -60 3 -25 28 -148 41 -205 2 -8 13 -46 24 -85 218 -760
780 -1380 1517 -1673 170 -68 383 -127 533 -148 20 -3 79 -11 131 -18 89 -12
496 -14 560 -2 14 2 45 7 70 10 25 4 92 16 150 27 58 12 115 23 128 25 38 7
320 103 370 125 328 148 584 322 819 560 299 303 508 651 632 1054 78 254 105
448 106 740 0 193 -3 251 -16 330 -4 28 -10 66 -13 85 -2 19 -10 60 -16 90 -6
30 -14 66 -16 80 -11 55 -56 205 -88 292 -129 352 -311 642 -570 908 -98 101
-155 153 -216 200 -24 19 -53 43 -65 53 -21 19 -215 149 -275 184 -49 29 -276
143 -285 143 -4 0 -21 6 -38 14 -135 62 -421 137 -612 162 -27 3 -59 8 -70 11
-22 5 -451 13 -457 8z"/>
</g>
</svg>
